<mxfile host="Electron" agent="Mozilla/5.0 (Windows NT 10.0; Win64; x64) AppleWebKit/537.36 (KHTML, like Gecko) draw.io/27.0.9 Chrome/134.0.6998.205 Electron/35.4.0 Safari/537.36" version="27.0.9">
  <diagram name="Page-1" id="cH7ULfxV8wTcI4KNnntC">
    <mxGraphModel dx="1901" dy="1132" grid="1" gridSize="10" guides="1" tooltips="1" connect="1" arrows="1" fold="1" page="1" pageScale="1" pageWidth="850" pageHeight="1100" math="0" shadow="0">
      <root>
        <mxCell id="0" />
        <mxCell id="1" parent="0" />
        <mxCell id="h7LFF1Y1oiOLzDEk9-o_-1" value="student" style="rounded=0;whiteSpace=wrap;html=1;" parent="1" vertex="1">
          <mxGeometry x="370" y="400" width="120" height="60" as="geometry" />
        </mxCell>
        <mxCell id="h7LFF1Y1oiOLzDEk9-o_-3" value="" style="endArrow=none;html=1;rounded=0;entryX=0;entryY=0;entryDx=0;entryDy=0;exitX=1;exitY=1;exitDx=0;exitDy=0;" parent="1" source="h7LFF1Y1oiOLzDEk9-o_-4" target="h7LFF1Y1oiOLzDEk9-o_-1" edge="1">
          <mxGeometry width="50" height="50" relative="1" as="geometry">
            <mxPoint x="360" y="360" as="sourcePoint" />
            <mxPoint x="450" y="400" as="targetPoint" />
            <Array as="points" />
          </mxGeometry>
        </mxCell>
        <mxCell id="h7LFF1Y1oiOLzDEk9-o_-4" value="fullName" style="ellipse;whiteSpace=wrap;html=1;" parent="1" vertex="1">
          <mxGeometry x="250" y="300" width="120" height="70" as="geometry" />
        </mxCell>
        <mxCell id="h7LFF1Y1oiOLzDEk9-o_-6" value="" style="endArrow=none;html=1;rounded=0;exitX=0.5;exitY=0;exitDx=0;exitDy=0;entryX=0.5;entryY=1;entryDx=0;entryDy=0;" parent="1" source="h7LFF1Y1oiOLzDEk9-o_-1" target="h7LFF1Y1oiOLzDEk9-o_-18" edge="1">
          <mxGeometry width="50" height="50" relative="1" as="geometry">
            <mxPoint x="450" y="400" as="sourcePoint" />
            <mxPoint x="445" y="340" as="targetPoint" />
          </mxGeometry>
        </mxCell>
        <mxCell id="h7LFF1Y1oiOLzDEk9-o_-7" value="ISregistration" style="ellipse;whiteSpace=wrap;html=1;" parent="1" vertex="1">
          <mxGeometry x="551.09" y="333" width="110" height="60" as="geometry" />
        </mxCell>
        <mxCell id="h7LFF1Y1oiOLzDEk9-o_-8" value="" style="endArrow=none;html=1;rounded=0;exitX=1;exitY=0;exitDx=0;exitDy=0;entryX=0;entryY=1;entryDx=0;entryDy=0;" parent="1" source="h7LFF1Y1oiOLzDEk9-o_-1" target="h7LFF1Y1oiOLzDEk9-o_-7" edge="1">
          <mxGeometry width="50" height="50" relative="1" as="geometry">
            <mxPoint x="450" y="400" as="sourcePoint" />
            <mxPoint x="500" y="350" as="targetPoint" />
          </mxGeometry>
        </mxCell>
        <mxCell id="h7LFF1Y1oiOLzDEk9-o_-9" value="phoneNmber" style="ellipse;whiteSpace=wrap;html=1;" parent="1" vertex="1">
          <mxGeometry x="210" y="410" width="120" height="60" as="geometry" />
        </mxCell>
        <mxCell id="h7LFF1Y1oiOLzDEk9-o_-10" value="" style="endArrow=none;html=1;rounded=0;entryX=1;entryY=0.5;entryDx=0;entryDy=0;exitX=-0.004;exitY=0.545;exitDx=0;exitDy=0;exitPerimeter=0;" parent="1" source="h7LFF1Y1oiOLzDEk9-o_-1" target="h7LFF1Y1oiOLzDEk9-o_-9" edge="1">
          <mxGeometry width="50" height="50" relative="1" as="geometry">
            <mxPoint x="400" y="400" as="sourcePoint" />
            <mxPoint x="450" y="350" as="targetPoint" />
          </mxGeometry>
        </mxCell>
        <mxCell id="h7LFF1Y1oiOLzDEk9-o_-11" value="" style="endArrow=none;html=1;rounded=0;exitX=0;exitY=1;exitDx=0;exitDy=0;entryX=1;entryY=0.5;entryDx=0;entryDy=0;" parent="1" source="h7LFF1Y1oiOLzDEk9-o_-4" target="h7LFF1Y1oiOLzDEk9-o_-16" edge="1">
          <mxGeometry width="50" height="50" relative="1" as="geometry">
            <mxPoint x="110" y="390" as="sourcePoint" />
            <mxPoint x="200" y="370" as="targetPoint" />
          </mxGeometry>
        </mxCell>
        <mxCell id="h7LFF1Y1oiOLzDEk9-o_-12" value="" style="endArrow=none;html=1;rounded=0;entryX=0;entryY=0;entryDx=0;entryDy=0;exitX=1;exitY=0.5;exitDx=0;exitDy=0;" parent="1" source="h7LFF1Y1oiOLzDEk9-o_-15" target="h7LFF1Y1oiOLzDEk9-o_-4" edge="1">
          <mxGeometry width="50" height="50" relative="1" as="geometry">
            <mxPoint x="190" y="290" as="sourcePoint" />
            <mxPoint x="200" y="250" as="targetPoint" />
          </mxGeometry>
        </mxCell>
        <mxCell id="h7LFF1Y1oiOLzDEk9-o_-13" value="" style="endArrow=none;html=1;rounded=0;exitX=0.5;exitY=0;exitDx=0;exitDy=0;entryX=0.5;entryY=1;entryDx=0;entryDy=0;" parent="1" source="h7LFF1Y1oiOLzDEk9-o_-4" target="h7LFF1Y1oiOLzDEk9-o_-14" edge="1">
          <mxGeometry width="50" height="50" relative="1" as="geometry">
            <mxPoint x="240" y="240" as="sourcePoint" />
            <mxPoint x="280" y="230" as="targetPoint" />
          </mxGeometry>
        </mxCell>
        <mxCell id="h7LFF1Y1oiOLzDEk9-o_-14" value="Fname" style="ellipse;whiteSpace=wrap;html=1;" parent="1" vertex="1">
          <mxGeometry x="220" y="180" width="110" height="60" as="geometry" />
        </mxCell>
        <mxCell id="h7LFF1Y1oiOLzDEk9-o_-15" value="Mname" style="ellipse;whiteSpace=wrap;html=1;" parent="1" vertex="1">
          <mxGeometry x="100" y="240" width="100" height="60" as="geometry" />
        </mxCell>
        <mxCell id="h7LFF1Y1oiOLzDEk9-o_-16" value="Lname" style="ellipse;whiteSpace=wrap;html=1;" parent="1" vertex="1">
          <mxGeometry x="100" y="340" width="100" height="70" as="geometry" />
        </mxCell>
        <mxCell id="h7LFF1Y1oiOLzDEk9-o_-18" value="studentID" style="ellipse;whiteSpace=wrap;html=1;align=center;fontStyle=4;" parent="1" vertex="1">
          <mxGeometry x="340" y="220" width="120" height="50" as="geometry" />
        </mxCell>
        <mxCell id="h7LFF1Y1oiOLzDEk9-o_-21" value="problem" style="rounded=0;whiteSpace=wrap;html=1;" parent="1" vertex="1">
          <mxGeometry x="801.09" y="1020" width="120" height="60" as="geometry" />
        </mxCell>
        <mxCell id="h7LFF1Y1oiOLzDEk9-o_-22" value="reportID" style="ellipse;whiteSpace=wrap;html=1;align=center;fontStyle=4;" parent="1" vertex="1">
          <mxGeometry x="831.09" y="880" width="100" height="45" as="geometry" />
        </mxCell>
        <mxCell id="h7LFF1Y1oiOLzDEk9-o_-23" value="repairStatus" style="ellipse;whiteSpace=wrap;html=1;" parent="1" vertex="1">
          <mxGeometry x="661.09" y="930" width="120" height="50" as="geometry" />
        </mxCell>
        <mxCell id="h7LFF1Y1oiOLzDEk9-o_-24" value="reportDate" style="ellipse;whiteSpace=wrap;html=1;" parent="1" vertex="1">
          <mxGeometry x="621.09" y="1000" width="120" height="60" as="geometry" />
        </mxCell>
        <mxCell id="h7LFF1Y1oiOLzDEk9-o_-25" value="problemType" style="ellipse;whiteSpace=wrap;html=1;" parent="1" vertex="1">
          <mxGeometry x="641.09" y="1090" width="120" height="50" as="geometry" />
        </mxCell>
        <mxCell id="h7LFF1Y1oiOLzDEk9-o_-26" value="studentID" style="ellipse;whiteSpace=wrap;html=1;" parent="1" vertex="1">
          <mxGeometry x="951.09" y="990" width="120" height="50" as="geometry" />
        </mxCell>
        <mxCell id="h7LFF1Y1oiOLzDEk9-o_-27" value="roomID" style="ellipse;whiteSpace=wrap;html=1;" parent="1" vertex="1">
          <mxGeometry x="941.09" y="1080" width="120" height="50" as="geometry" />
        </mxCell>
        <mxCell id="h7LFF1Y1oiOLzDEk9-o_-28" value="" style="endArrow=none;html=1;rounded=0;exitX=0.5;exitY=0;exitDx=0;exitDy=0;entryX=0.5;entryY=1;entryDx=0;entryDy=0;" parent="1" source="h7LFF1Y1oiOLzDEk9-o_-21" target="h7LFF1Y1oiOLzDEk9-o_-22" edge="1">
          <mxGeometry width="50" height="50" relative="1" as="geometry">
            <mxPoint x="891.09" y="990" as="sourcePoint" />
            <mxPoint x="941.09" y="940" as="targetPoint" />
          </mxGeometry>
        </mxCell>
        <mxCell id="h7LFF1Y1oiOLzDEk9-o_-29" value="" style="endArrow=none;html=1;rounded=0;exitX=0;exitY=0;exitDx=0;exitDy=0;entryX=1;entryY=1;entryDx=0;entryDy=0;" parent="1" source="h7LFF1Y1oiOLzDEk9-o_-21" target="h7LFF1Y1oiOLzDEk9-o_-23" edge="1">
          <mxGeometry width="50" height="50" relative="1" as="geometry">
            <mxPoint x="781.09" y="990" as="sourcePoint" />
            <mxPoint x="831.09" y="940" as="targetPoint" />
          </mxGeometry>
        </mxCell>
        <mxCell id="h7LFF1Y1oiOLzDEk9-o_-30" value="" style="endArrow=none;html=1;rounded=0;entryX=0;entryY=0.5;entryDx=0;entryDy=0;exitX=1;exitY=0.5;exitDx=0;exitDy=0;" parent="1" source="h7LFF1Y1oiOLzDEk9-o_-24" target="h7LFF1Y1oiOLzDEk9-o_-21" edge="1">
          <mxGeometry width="50" height="50" relative="1" as="geometry">
            <mxPoint x="751.09" y="1040" as="sourcePoint" />
            <mxPoint x="811.09" y="990" as="targetPoint" />
          </mxGeometry>
        </mxCell>
        <mxCell id="h7LFF1Y1oiOLzDEk9-o_-31" value="" style="endArrow=none;html=1;rounded=0;entryX=0;entryY=1;entryDx=0;entryDy=0;exitX=1;exitY=0.5;exitDx=0;exitDy=0;" parent="1" source="h7LFF1Y1oiOLzDEk9-o_-25" target="h7LFF1Y1oiOLzDEk9-o_-21" edge="1">
          <mxGeometry width="50" height="50" relative="1" as="geometry">
            <mxPoint x="781.09" y="1070" as="sourcePoint" />
            <mxPoint x="831.09" y="1020" as="targetPoint" />
          </mxGeometry>
        </mxCell>
        <mxCell id="h7LFF1Y1oiOLzDEk9-o_-32" value="" style="endArrow=none;html=1;rounded=0;exitX=1;exitY=1;exitDx=0;exitDy=0;entryX=0;entryY=0.5;entryDx=0;entryDy=0;" parent="1" source="h7LFF1Y1oiOLzDEk9-o_-21" target="h7LFF1Y1oiOLzDEk9-o_-27" edge="1">
          <mxGeometry width="50" height="50" relative="1" as="geometry">
            <mxPoint x="911.09" y="1140" as="sourcePoint" />
            <mxPoint x="961.09" y="1040" as="targetPoint" />
          </mxGeometry>
        </mxCell>
        <mxCell id="h7LFF1Y1oiOLzDEk9-o_-33" value="" style="endArrow=none;html=1;rounded=0;exitX=1;exitY=0;exitDx=0;exitDy=0;entryX=0;entryY=0.5;entryDx=0;entryDy=0;" parent="1" source="h7LFF1Y1oiOLzDEk9-o_-21" target="h7LFF1Y1oiOLzDEk9-o_-26" edge="1">
          <mxGeometry width="50" height="50" relative="1" as="geometry">
            <mxPoint x="931.09" y="1000" as="sourcePoint" />
            <mxPoint x="981.09" y="950" as="targetPoint" />
          </mxGeometry>
        </mxCell>
        <mxCell id="h7LFF1Y1oiOLzDEk9-o_-48" value="transferRequest" style="rounded=0;whiteSpace=wrap;html=1;" parent="1" vertex="1">
          <mxGeometry x="305" y="1000" width="120" height="60" as="geometry" />
        </mxCell>
        <mxCell id="h7LFF1Y1oiOLzDEk9-o_-49" value="requestID" style="ellipse;whiteSpace=wrap;html=1;align=center;fontStyle=4;" parent="1" vertex="1">
          <mxGeometry x="395" y="875" width="100" height="45" as="geometry" />
        </mxCell>
        <mxCell id="h7LFF1Y1oiOLzDEk9-o_-50" value="reportID" style="ellipse;whiteSpace=wrap;html=1;" parent="1" vertex="1">
          <mxGeometry x="165" y="910" width="120" height="50" as="geometry" />
        </mxCell>
        <mxCell id="h7LFF1Y1oiOLzDEk9-o_-51" value="requestDate" style="ellipse;whiteSpace=wrap;html=1;" parent="1" vertex="1">
          <mxGeometry x="125" y="980" width="120" height="60" as="geometry" />
        </mxCell>
        <mxCell id="h7LFF1Y1oiOLzDEk9-o_-52" value="status" style="ellipse;whiteSpace=wrap;html=1;" parent="1" vertex="1">
          <mxGeometry x="145" y="1070" width="120" height="50" as="geometry" />
        </mxCell>
        <mxCell id="h7LFF1Y1oiOLzDEk9-o_-53" value="studentID" style="ellipse;whiteSpace=wrap;html=1;" parent="1" vertex="1">
          <mxGeometry x="455" y="970" width="120" height="50" as="geometry" />
        </mxCell>
        <mxCell id="h7LFF1Y1oiOLzDEk9-o_-54" value="fromRoomID" style="ellipse;whiteSpace=wrap;html=1;" parent="1" vertex="1">
          <mxGeometry x="445" y="1060" width="120" height="50" as="geometry" />
        </mxCell>
        <mxCell id="h7LFF1Y1oiOLzDEk9-o_-55" value="" style="endArrow=none;html=1;rounded=0;exitX=0.5;exitY=0;exitDx=0;exitDy=0;entryX=0.5;entryY=1;entryDx=0;entryDy=0;" parent="1" source="h7LFF1Y1oiOLzDEk9-o_-48" target="h7LFF1Y1oiOLzDEk9-o_-49" edge="1">
          <mxGeometry width="50" height="50" relative="1" as="geometry">
            <mxPoint x="395" y="970" as="sourcePoint" />
            <mxPoint x="445" y="920" as="targetPoint" />
          </mxGeometry>
        </mxCell>
        <mxCell id="h7LFF1Y1oiOLzDEk9-o_-56" value="" style="endArrow=none;html=1;rounded=0;exitX=0;exitY=0;exitDx=0;exitDy=0;entryX=1;entryY=1;entryDx=0;entryDy=0;" parent="1" source="h7LFF1Y1oiOLzDEk9-o_-48" target="h7LFF1Y1oiOLzDEk9-o_-50" edge="1">
          <mxGeometry width="50" height="50" relative="1" as="geometry">
            <mxPoint x="285" y="970" as="sourcePoint" />
            <mxPoint x="335" y="920" as="targetPoint" />
          </mxGeometry>
        </mxCell>
        <mxCell id="h7LFF1Y1oiOLzDEk9-o_-57" value="" style="endArrow=none;html=1;rounded=0;entryX=0;entryY=0.5;entryDx=0;entryDy=0;exitX=1;exitY=0.5;exitDx=0;exitDy=0;" parent="1" source="h7LFF1Y1oiOLzDEk9-o_-51" target="h7LFF1Y1oiOLzDEk9-o_-48" edge="1">
          <mxGeometry width="50" height="50" relative="1" as="geometry">
            <mxPoint x="255" y="1020" as="sourcePoint" />
            <mxPoint x="315" y="970" as="targetPoint" />
          </mxGeometry>
        </mxCell>
        <mxCell id="h7LFF1Y1oiOLzDEk9-o_-58" value="" style="endArrow=none;html=1;rounded=0;entryX=0;entryY=1;entryDx=0;entryDy=0;exitX=1;exitY=0.5;exitDx=0;exitDy=0;" parent="1" source="h7LFF1Y1oiOLzDEk9-o_-52" target="h7LFF1Y1oiOLzDEk9-o_-48" edge="1">
          <mxGeometry width="50" height="50" relative="1" as="geometry">
            <mxPoint x="285" y="1050" as="sourcePoint" />
            <mxPoint x="335" y="1000" as="targetPoint" />
          </mxGeometry>
        </mxCell>
        <mxCell id="h7LFF1Y1oiOLzDEk9-o_-59" value="" style="endArrow=none;html=1;rounded=0;exitX=1;exitY=1;exitDx=0;exitDy=0;entryX=0;entryY=0.5;entryDx=0;entryDy=0;" parent="1" source="h7LFF1Y1oiOLzDEk9-o_-48" target="h7LFF1Y1oiOLzDEk9-o_-54" edge="1">
          <mxGeometry width="50" height="50" relative="1" as="geometry">
            <mxPoint x="415" y="1120" as="sourcePoint" />
            <mxPoint x="465" y="1020" as="targetPoint" />
          </mxGeometry>
        </mxCell>
        <mxCell id="h7LFF1Y1oiOLzDEk9-o_-60" value="" style="endArrow=none;html=1;rounded=0;exitX=1;exitY=0;exitDx=0;exitDy=0;entryX=0;entryY=0.5;entryDx=0;entryDy=0;" parent="1" source="h7LFF1Y1oiOLzDEk9-o_-48" target="h7LFF1Y1oiOLzDEk9-o_-53" edge="1">
          <mxGeometry width="50" height="50" relative="1" as="geometry">
            <mxPoint x="435" y="980" as="sourcePoint" />
            <mxPoint x="485" y="930" as="targetPoint" />
          </mxGeometry>
        </mxCell>
        <mxCell id="h7LFF1Y1oiOLzDEk9-o_-61" value="toRoomID" style="ellipse;whiteSpace=wrap;html=1;" parent="1" vertex="1">
          <mxGeometry x="315" y="1100" width="110" height="50" as="geometry" />
        </mxCell>
        <mxCell id="h7LFF1Y1oiOLzDEk9-o_-62" value="" style="endArrow=none;html=1;rounded=0;exitX=0.5;exitY=1;exitDx=0;exitDy=0;entryX=0.5;entryY=0;entryDx=0;entryDy=0;" parent="1" source="h7LFF1Y1oiOLzDEk9-o_-48" target="h7LFF1Y1oiOLzDEk9-o_-61" edge="1">
          <mxGeometry width="50" height="50" relative="1" as="geometry">
            <mxPoint x="315" y="1110" as="sourcePoint" />
            <mxPoint x="355" y="1070" as="targetPoint" />
          </mxGeometry>
        </mxCell>
        <mxCell id="h7LFF1Y1oiOLzDEk9-o_-63" value="application" style="rounded=0;whiteSpace=wrap;html=1;" parent="1" vertex="1">
          <mxGeometry x="1135" y="393" width="120" height="60" as="geometry" />
        </mxCell>
        <mxCell id="h7LFF1Y1oiOLzDEk9-o_-64" value="appID" style="ellipse;whiteSpace=wrap;html=1;align=center;fontStyle=4;" parent="1" vertex="1">
          <mxGeometry x="1175" y="308" width="100" height="45" as="geometry" />
        </mxCell>
        <mxCell id="h7LFF1Y1oiOLzDEk9-o_-65" value="status" style="ellipse;whiteSpace=wrap;html=1;" parent="1" vertex="1">
          <mxGeometry x="1045" y="318" width="105" height="50" as="geometry" />
        </mxCell>
        <mxCell id="h7LFF1Y1oiOLzDEk9-o_-67" value="studentID" style="ellipse;whiteSpace=wrap;html=1;" parent="1" vertex="1">
          <mxGeometry x="1275" y="353" width="120" height="50" as="geometry" />
        </mxCell>
        <mxCell id="h7LFF1Y1oiOLzDEk9-o_-68" value="roomID" style="ellipse;whiteSpace=wrap;html=1;" parent="1" vertex="1">
          <mxGeometry x="1275" y="443" width="120" height="50" as="geometry" />
        </mxCell>
        <mxCell id="h7LFF1Y1oiOLzDEk9-o_-69" value="" style="endArrow=none;html=1;rounded=0;exitX=0.5;exitY=0;exitDx=0;exitDy=0;entryX=0.5;entryY=1;entryDx=0;entryDy=0;" parent="1" source="h7LFF1Y1oiOLzDEk9-o_-63" target="h7LFF1Y1oiOLzDEk9-o_-64" edge="1">
          <mxGeometry width="50" height="50" relative="1" as="geometry">
            <mxPoint x="1205" y="373" as="sourcePoint" />
            <mxPoint x="1255" y="323" as="targetPoint" />
          </mxGeometry>
        </mxCell>
        <mxCell id="h7LFF1Y1oiOLzDEk9-o_-70" value="" style="endArrow=none;html=1;rounded=0;exitX=0;exitY=0;exitDx=0;exitDy=0;entryX=0.5;entryY=1;entryDx=0;entryDy=0;" parent="1" source="h7LFF1Y1oiOLzDEk9-o_-63" target="h7LFF1Y1oiOLzDEk9-o_-65" edge="1">
          <mxGeometry width="50" height="50" relative="1" as="geometry">
            <mxPoint x="1095" y="373" as="sourcePoint" />
            <mxPoint x="1145" y="323" as="targetPoint" />
          </mxGeometry>
        </mxCell>
        <mxCell id="h7LFF1Y1oiOLzDEk9-o_-73" value="" style="endArrow=none;html=1;rounded=0;exitX=1;exitY=1;exitDx=0;exitDy=0;entryX=0;entryY=0.5;entryDx=0;entryDy=0;" parent="1" source="h7LFF1Y1oiOLzDEk9-o_-63" target="h7LFF1Y1oiOLzDEk9-o_-68" edge="1">
          <mxGeometry width="50" height="50" relative="1" as="geometry">
            <mxPoint x="1225" y="523" as="sourcePoint" />
            <mxPoint x="1275" y="423" as="targetPoint" />
          </mxGeometry>
        </mxCell>
        <mxCell id="h7LFF1Y1oiOLzDEk9-o_-74" value="" style="endArrow=none;html=1;rounded=0;exitX=1;exitY=0;exitDx=0;exitDy=0;entryX=0;entryY=0.5;entryDx=0;entryDy=0;" parent="1" source="h7LFF1Y1oiOLzDEk9-o_-63" target="h7LFF1Y1oiOLzDEk9-o_-67" edge="1">
          <mxGeometry width="50" height="50" relative="1" as="geometry">
            <mxPoint x="1245" y="383" as="sourcePoint" />
            <mxPoint x="1295" y="333" as="targetPoint" />
          </mxGeometry>
        </mxCell>
        <mxCell id="h7LFF1Y1oiOLzDEk9-o_-75" value="roomType" style="ellipse;whiteSpace=wrap;html=1;" parent="1" vertex="1">
          <mxGeometry x="1025" y="500.5" width="120" height="50" as="geometry" />
        </mxCell>
        <mxCell id="h7LFF1Y1oiOLzDEk9-o_-76" value="" style="endArrow=none;html=1;rounded=0;exitX=0.5;exitY=1;exitDx=0;exitDy=0;entryX=0.5;entryY=0;entryDx=0;entryDy=0;" parent="1" source="h7LFF1Y1oiOLzDEk9-o_-63" target="h7LFF1Y1oiOLzDEk9-o_-75" edge="1">
          <mxGeometry width="50" height="50" relative="1" as="geometry">
            <mxPoint x="1155" y="493" as="sourcePoint" />
            <mxPoint x="1175" y="463" as="targetPoint" />
          </mxGeometry>
        </mxCell>
        <mxCell id="h7LFF1Y1oiOLzDEk9-o_-77" value="room" style="rounded=0;whiteSpace=wrap;html=1;" parent="1" vertex="1">
          <mxGeometry x="878.5899999999999" y="675" width="120" height="60" as="geometry" />
        </mxCell>
        <mxCell id="h7LFF1Y1oiOLzDEk9-o_-78" value="roomID" style="ellipse;whiteSpace=wrap;html=1;align=center;fontStyle=4;" parent="1" vertex="1">
          <mxGeometry x="878.5899999999999" y="590" width="100" height="45" as="geometry" />
        </mxCell>
        <mxCell id="h7LFF1Y1oiOLzDEk9-o_-79" value="status" style="ellipse;whiteSpace=wrap;html=1;" parent="1" vertex="1">
          <mxGeometry x="1038.59" y="675" width="105" height="50" as="geometry" />
        </mxCell>
        <mxCell id="h7LFF1Y1oiOLzDEk9-o_-82" value="" style="endArrow=none;html=1;rounded=0;exitX=0.5;exitY=0;exitDx=0;exitDy=0;entryX=0.5;entryY=1;entryDx=0;entryDy=0;" parent="1" source="h7LFF1Y1oiOLzDEk9-o_-77" target="h7LFF1Y1oiOLzDEk9-o_-78" edge="1">
          <mxGeometry width="50" height="50" relative="1" as="geometry">
            <mxPoint x="948.5899999999999" y="655" as="sourcePoint" />
            <mxPoint x="998.5899999999999" y="605" as="targetPoint" />
          </mxGeometry>
        </mxCell>
        <mxCell id="h7LFF1Y1oiOLzDEk9-o_-83" value="" style="endArrow=none;html=1;rounded=0;exitX=1;exitY=0.5;exitDx=0;exitDy=0;entryX=0;entryY=0.5;entryDx=0;entryDy=0;" parent="1" source="h7LFF1Y1oiOLzDEk9-o_-77" target="h7LFF1Y1oiOLzDEk9-o_-79" edge="1">
          <mxGeometry width="50" height="50" relative="1" as="geometry">
            <mxPoint x="838.5899999999999" y="655" as="sourcePoint" />
            <mxPoint x="888.5899999999999" y="605" as="targetPoint" />
          </mxGeometry>
        </mxCell>
        <mxCell id="h7LFF1Y1oiOLzDEk9-o_-86" value="type" style="ellipse;whiteSpace=wrap;html=1;" parent="1" vertex="1">
          <mxGeometry x="888.5899999999999" y="765" width="120" height="50" as="geometry" />
        </mxCell>
        <mxCell id="h7LFF1Y1oiOLzDEk9-o_-87" value="" style="endArrow=none;html=1;rounded=0;exitX=0.5;exitY=1;exitDx=0;exitDy=0;entryX=0.5;entryY=0;entryDx=0;entryDy=0;" parent="1" source="h7LFF1Y1oiOLzDEk9-o_-77" target="h7LFF1Y1oiOLzDEk9-o_-86" edge="1">
          <mxGeometry width="50" height="50" relative="1" as="geometry">
            <mxPoint x="898.5899999999999" y="775" as="sourcePoint" />
            <mxPoint x="918.5899999999999" y="745" as="targetPoint" />
          </mxGeometry>
        </mxCell>
        <mxCell id="h7LFF1Y1oiOLzDEk9-o_-89" value="vacateRoom" style="rounded=0;whiteSpace=wrap;html=1;" parent="1" vertex="1">
          <mxGeometry x="1120" y="835" width="120" height="60" as="geometry" />
        </mxCell>
        <mxCell id="h7LFF1Y1oiOLzDEk9-o_-90" value="vacateID" style="ellipse;whiteSpace=wrap;html=1;align=center;fontStyle=4;" parent="1" vertex="1">
          <mxGeometry x="1120" y="750" width="100" height="45" as="geometry" />
        </mxCell>
        <mxCell id="h7LFF1Y1oiOLzDEk9-o_-91" value="status" style="ellipse;whiteSpace=wrap;html=1;" parent="1" vertex="1">
          <mxGeometry x="1280" y="835" width="105" height="50" as="geometry" />
        </mxCell>
        <mxCell id="h7LFF1Y1oiOLzDEk9-o_-92" value="" style="endArrow=none;html=1;rounded=0;exitX=0.5;exitY=0;exitDx=0;exitDy=0;entryX=0.5;entryY=1;entryDx=0;entryDy=0;" parent="1" source="h7LFF1Y1oiOLzDEk9-o_-89" target="h7LFF1Y1oiOLzDEk9-o_-90" edge="1">
          <mxGeometry width="50" height="50" relative="1" as="geometry">
            <mxPoint x="1190" y="815" as="sourcePoint" />
            <mxPoint x="1240" y="765" as="targetPoint" />
          </mxGeometry>
        </mxCell>
        <mxCell id="h7LFF1Y1oiOLzDEk9-o_-93" value="" style="endArrow=none;html=1;rounded=0;exitX=1;exitY=0.5;exitDx=0;exitDy=0;entryX=0;entryY=0.5;entryDx=0;entryDy=0;" parent="1" source="h7LFF1Y1oiOLzDEk9-o_-89" target="h7LFF1Y1oiOLzDEk9-o_-91" edge="1">
          <mxGeometry width="50" height="50" relative="1" as="geometry">
            <mxPoint x="1080" y="815" as="sourcePoint" />
            <mxPoint x="1130" y="765" as="targetPoint" />
          </mxGeometry>
        </mxCell>
        <mxCell id="h7LFF1Y1oiOLzDEk9-o_-94" value="type" style="ellipse;whiteSpace=wrap;html=1;" parent="1" vertex="1">
          <mxGeometry x="1090" y="920" width="120" height="50" as="geometry" />
        </mxCell>
        <mxCell id="h7LFF1Y1oiOLzDEk9-o_-95" value="" style="endArrow=none;html=1;rounded=0;exitX=0.5;exitY=1;exitDx=0;exitDy=0;entryX=0.5;entryY=0;entryDx=0;entryDy=0;" parent="1" source="h7LFF1Y1oiOLzDEk9-o_-89" target="h7LFF1Y1oiOLzDEk9-o_-94" edge="1">
          <mxGeometry width="50" height="50" relative="1" as="geometry">
            <mxPoint x="1140" y="935" as="sourcePoint" />
            <mxPoint x="1160" y="905" as="targetPoint" />
          </mxGeometry>
        </mxCell>
        <mxCell id="h7LFF1Y1oiOLzDEk9-o_-96" value="roomID" style="ellipse;whiteSpace=wrap;html=1;" parent="1" vertex="1">
          <mxGeometry x="1290" y="910" width="105" height="50" as="geometry" />
        </mxCell>
        <mxCell id="h7LFF1Y1oiOLzDEk9-o_-97" value="" style="endArrow=none;html=1;rounded=0;exitX=1;exitY=1;exitDx=0;exitDy=0;entryX=0;entryY=0.5;entryDx=0;entryDy=0;" parent="1" source="h7LFF1Y1oiOLzDEk9-o_-89" target="h7LFF1Y1oiOLzDEk9-o_-96" edge="1">
          <mxGeometry width="50" height="50" relative="1" as="geometry">
            <mxPoint x="1330" y="960" as="sourcePoint" />
            <mxPoint x="1220" y="860" as="targetPoint" />
          </mxGeometry>
        </mxCell>
        <mxCell id="h7LFF1Y1oiOLzDEk9-o_-98" value="visit" style="rounded=0;whiteSpace=wrap;html=1;" parent="1" vertex="1">
          <mxGeometry x="765" y="160" width="120" height="60" as="geometry" />
        </mxCell>
        <mxCell id="h7LFF1Y1oiOLzDEk9-o_-99" value="visitID" style="ellipse;whiteSpace=wrap;html=1;align=center;fontStyle=4;" parent="1" vertex="1">
          <mxGeometry x="805" y="75" width="100" height="45" as="geometry" />
        </mxCell>
        <mxCell id="h7LFF1Y1oiOLzDEk9-o_-100" value="visitorName" style="ellipse;whiteSpace=wrap;html=1;" parent="1" vertex="1">
          <mxGeometry x="675" y="85" width="105" height="50" as="geometry" />
        </mxCell>
        <mxCell id="h7LFF1Y1oiOLzDEk9-o_-101" value="studentID" style="ellipse;whiteSpace=wrap;html=1;" parent="1" vertex="1">
          <mxGeometry x="905" y="120" width="120" height="50" as="geometry" />
        </mxCell>
        <mxCell id="h7LFF1Y1oiOLzDEk9-o_-102" value="roomID" style="ellipse;whiteSpace=wrap;html=1;" parent="1" vertex="1">
          <mxGeometry x="905" y="210" width="120" height="50" as="geometry" />
        </mxCell>
        <mxCell id="h7LFF1Y1oiOLzDEk9-o_-103" value="" style="endArrow=none;html=1;rounded=0;exitX=0.5;exitY=0;exitDx=0;exitDy=0;entryX=0.5;entryY=1;entryDx=0;entryDy=0;" parent="1" source="h7LFF1Y1oiOLzDEk9-o_-98" target="h7LFF1Y1oiOLzDEk9-o_-99" edge="1">
          <mxGeometry width="50" height="50" relative="1" as="geometry">
            <mxPoint x="835" y="140" as="sourcePoint" />
            <mxPoint x="885" y="90" as="targetPoint" />
          </mxGeometry>
        </mxCell>
        <mxCell id="h7LFF1Y1oiOLzDEk9-o_-104" value="" style="endArrow=none;html=1;rounded=0;exitX=0;exitY=0;exitDx=0;exitDy=0;entryX=0.5;entryY=1;entryDx=0;entryDy=0;" parent="1" source="h7LFF1Y1oiOLzDEk9-o_-98" target="h7LFF1Y1oiOLzDEk9-o_-100" edge="1">
          <mxGeometry width="50" height="50" relative="1" as="geometry">
            <mxPoint x="725" y="140" as="sourcePoint" />
            <mxPoint x="775" y="90" as="targetPoint" />
          </mxGeometry>
        </mxCell>
        <mxCell id="h7LFF1Y1oiOLzDEk9-o_-105" value="" style="endArrow=none;html=1;rounded=0;exitX=1;exitY=1;exitDx=0;exitDy=0;entryX=0;entryY=0.5;entryDx=0;entryDy=0;" parent="1" source="h7LFF1Y1oiOLzDEk9-o_-98" target="h7LFF1Y1oiOLzDEk9-o_-102" edge="1">
          <mxGeometry width="50" height="50" relative="1" as="geometry">
            <mxPoint x="855" y="290" as="sourcePoint" />
            <mxPoint x="905" y="190" as="targetPoint" />
          </mxGeometry>
        </mxCell>
        <mxCell id="h7LFF1Y1oiOLzDEk9-o_-106" value="" style="endArrow=none;html=1;rounded=0;exitX=1;exitY=0;exitDx=0;exitDy=0;entryX=0;entryY=0.5;entryDx=0;entryDy=0;" parent="1" source="h7LFF1Y1oiOLzDEk9-o_-98" target="h7LFF1Y1oiOLzDEk9-o_-101" edge="1">
          <mxGeometry width="50" height="50" relative="1" as="geometry">
            <mxPoint x="875" y="150" as="sourcePoint" />
            <mxPoint x="925" y="100" as="targetPoint" />
          </mxGeometry>
        </mxCell>
        <mxCell id="h7LFF1Y1oiOLzDEk9-o_-107" value="visitDate" style="ellipse;whiteSpace=wrap;html=1;" parent="1" vertex="1">
          <mxGeometry x="775" y="250" width="120" height="50" as="geometry" />
        </mxCell>
        <mxCell id="h7LFF1Y1oiOLzDEk9-o_-108" value="" style="endArrow=none;html=1;rounded=0;exitX=0.5;exitY=1;exitDx=0;exitDy=0;entryX=0.5;entryY=0;entryDx=0;entryDy=0;" parent="1" source="h7LFF1Y1oiOLzDEk9-o_-98" target="h7LFF1Y1oiOLzDEk9-o_-107" edge="1">
          <mxGeometry width="50" height="50" relative="1" as="geometry">
            <mxPoint x="785" y="260" as="sourcePoint" />
            <mxPoint x="805" y="230" as="targetPoint" />
          </mxGeometry>
        </mxCell>
        <mxCell id="gxma9zbE-h8rMoWy52sN-1" value="" style="endArrow=none;html=1;rounded=0;exitX=1;exitY=0.5;exitDx=0;exitDy=0;" parent="1" source="h7LFF1Y1oiOLzDEk9-o_-1" target="gxma9zbE-h8rMoWy52sN-2" edge="1">
          <mxGeometry width="50" height="50" relative="1" as="geometry">
            <mxPoint x="830" y="630" as="sourcePoint" />
            <mxPoint x="610" y="440" as="targetPoint" />
          </mxGeometry>
        </mxCell>
        <mxCell id="gxma9zbE-h8rMoWy52sN-4" value="M" style="edgeLabel;html=1;align=center;verticalAlign=middle;resizable=0;points=[];" parent="gxma9zbE-h8rMoWy52sN-1" vertex="1" connectable="0">
          <mxGeometry x="-0.698" y="-1" relative="1" as="geometry">
            <mxPoint as="offset" />
          </mxGeometry>
        </mxCell>
        <mxCell id="gxma9zbE-h8rMoWy52sN-2" value="Register" style="rhombus;whiteSpace=wrap;html=1;" parent="1" vertex="1">
          <mxGeometry x="750" y="380" width="80" height="80" as="geometry" />
        </mxCell>
        <mxCell id="gxma9zbE-h8rMoWy52sN-3" value="" style="endArrow=none;html=1;rounded=0;exitX=1;exitY=0.5;exitDx=0;exitDy=0;entryX=0;entryY=0.5;entryDx=0;entryDy=0;" parent="1" source="gxma9zbE-h8rMoWy52sN-2" target="h7LFF1Y1oiOLzDEk9-o_-63" edge="1">
          <mxGeometry width="50" height="50" relative="1" as="geometry">
            <mxPoint x="830" y="630" as="sourcePoint" />
            <mxPoint x="880" y="580" as="targetPoint" />
          </mxGeometry>
        </mxCell>
        <mxCell id="gxma9zbE-h8rMoWy52sN-5" value="1" style="edgeLabel;html=1;align=center;verticalAlign=middle;resizable=0;points=[];" parent="gxma9zbE-h8rMoWy52sN-3" vertex="1" connectable="0">
          <mxGeometry x="0.7149" y="-1" relative="1" as="geometry">
            <mxPoint as="offset" />
          </mxGeometry>
        </mxCell>
        <mxCell id="gxma9zbE-h8rMoWy52sN-6" value="" style="endArrow=none;html=1;rounded=0;exitX=1;exitY=1;exitDx=0;exitDy=0;" parent="1" source="h7LFF1Y1oiOLzDEk9-o_-1" target="gxma9zbE-h8rMoWy52sN-7" edge="1">
          <mxGeometry width="50" height="50" relative="1" as="geometry">
            <mxPoint x="830" y="630" as="sourcePoint" />
            <mxPoint x="760" y="550" as="targetPoint" />
          </mxGeometry>
        </mxCell>
        <mxCell id="gxma9zbE-h8rMoWy52sN-9" value="1" style="edgeLabel;html=1;align=center;verticalAlign=middle;resizable=0;points=[];" parent="gxma9zbE-h8rMoWy52sN-6" vertex="1" connectable="0">
          <mxGeometry x="-0.9253" y="1" relative="1" as="geometry">
            <mxPoint as="offset" />
          </mxGeometry>
        </mxCell>
        <mxCell id="gxma9zbE-h8rMoWy52sN-7" value="Reserve" style="rhombus;whiteSpace=wrap;html=1;" parent="1" vertex="1">
          <mxGeometry x="661.09" y="530" width="80" height="80" as="geometry" />
        </mxCell>
        <mxCell id="gxma9zbE-h8rMoWy52sN-8" value="" style="endArrow=none;html=1;rounded=0;exitX=1;exitY=1;exitDx=0;exitDy=0;entryX=0;entryY=0.5;entryDx=0;entryDy=0;" parent="1" source="gxma9zbE-h8rMoWy52sN-7" target="h7LFF1Y1oiOLzDEk9-o_-77" edge="1">
          <mxGeometry width="50" height="50" relative="1" as="geometry">
            <mxPoint x="830" y="630" as="sourcePoint" />
            <mxPoint x="880" y="580" as="targetPoint" />
          </mxGeometry>
        </mxCell>
        <mxCell id="gxma9zbE-h8rMoWy52sN-10" value="1" style="edgeLabel;html=1;align=center;verticalAlign=middle;resizable=0;points=[];" parent="gxma9zbE-h8rMoWy52sN-8" vertex="1" connectable="0">
          <mxGeometry x="0.8511" relative="1" as="geometry">
            <mxPoint as="offset" />
          </mxGeometry>
        </mxCell>
        <mxCell id="gxma9zbE-h8rMoWy52sN-11" value="" style="endArrow=none;html=1;rounded=0;entryX=0.5;entryY=1;entryDx=0;entryDy=0;exitX=0.5;exitY=0;exitDx=0;exitDy=0;" parent="1" source="gxma9zbE-h8rMoWy52sN-14" target="h7LFF1Y1oiOLzDEk9-o_-1" edge="1">
          <mxGeometry width="50" height="50" relative="1" as="geometry">
            <mxPoint x="380" y="550" as="sourcePoint" />
            <mxPoint x="670" y="680" as="targetPoint" />
          </mxGeometry>
        </mxCell>
        <mxCell id="gxma9zbE-h8rMoWy52sN-15" value="M" style="edgeLabel;html=1;align=center;verticalAlign=middle;resizable=0;points=[];" parent="gxma9zbE-h8rMoWy52sN-11" vertex="1" connectable="0">
          <mxGeometry x="0.6207" y="-3" relative="1" as="geometry">
            <mxPoint as="offset" />
          </mxGeometry>
        </mxCell>
        <mxCell id="gxma9zbE-h8rMoWy52sN-13" value="" style="endArrow=none;html=1;rounded=0;exitX=0.5;exitY=0;exitDx=0;exitDy=0;entryX=0.5;entryY=1;entryDx=0;entryDy=0;" parent="1" source="h7LFF1Y1oiOLzDEk9-o_-21" target="gxma9zbE-h8rMoWy52sN-14" edge="1">
          <mxGeometry width="50" height="50" relative="1" as="geometry">
            <mxPoint x="620" y="730" as="sourcePoint" />
            <mxPoint x="330" y="650" as="targetPoint" />
          </mxGeometry>
        </mxCell>
        <mxCell id="gxma9zbE-h8rMoWy52sN-16" value="M" style="edgeLabel;html=1;align=center;verticalAlign=middle;resizable=0;points=[];" parent="gxma9zbE-h8rMoWy52sN-13" vertex="1" connectable="0">
          <mxGeometry x="-0.6513" y="2" relative="1" as="geometry">
            <mxPoint as="offset" />
          </mxGeometry>
        </mxCell>
        <mxCell id="gxma9zbE-h8rMoWy52sN-14" value="Report" style="rhombus;whiteSpace=wrap;html=1;" parent="1" vertex="1">
          <mxGeometry x="510" y="610" width="80" height="80" as="geometry" />
        </mxCell>
        <mxCell id="gxma9zbE-h8rMoWy52sN-21" value="" style="endArrow=none;html=1;rounded=0;exitX=0.5;exitY=0;exitDx=0;exitDy=0;" parent="1" source="h7LFF1Y1oiOLzDEk9-o_-1" target="gxma9zbE-h8rMoWy52sN-19" edge="1">
          <mxGeometry width="50" height="50" relative="1" as="geometry">
            <mxPoint x="430" y="400" as="sourcePoint" />
            <mxPoint x="560" y="150" as="targetPoint" />
          </mxGeometry>
        </mxCell>
        <mxCell id="gxma9zbE-h8rMoWy52sN-23" value="1" style="edgeLabel;html=1;align=center;verticalAlign=middle;resizable=0;points=[];" parent="gxma9zbE-h8rMoWy52sN-21" vertex="1" connectable="0">
          <mxGeometry x="-0.6521" relative="1" as="geometry">
            <mxPoint y="-1" as="offset" />
          </mxGeometry>
        </mxCell>
        <mxCell id="gxma9zbE-h8rMoWy52sN-19" value="Reserve" style="rhombus;whiteSpace=wrap;html=1;" parent="1" vertex="1">
          <mxGeometry x="575" y="205" width="80" height="80" as="geometry" />
        </mxCell>
        <mxCell id="gxma9zbE-h8rMoWy52sN-22" value="" style="endArrow=none;html=1;rounded=0;exitX=1;exitY=0;exitDx=0;exitDy=0;entryX=0;entryY=1;entryDx=0;entryDy=0;" parent="1" source="gxma9zbE-h8rMoWy52sN-19" target="h7LFF1Y1oiOLzDEk9-o_-98" edge="1">
          <mxGeometry width="50" height="50" relative="1" as="geometry">
            <mxPoint x="610" y="105" as="sourcePoint" />
            <mxPoint x="660" y="55" as="targetPoint" />
            <Array as="points" />
          </mxGeometry>
        </mxCell>
        <mxCell id="gxma9zbE-h8rMoWy52sN-24" value="M" style="edgeLabel;html=1;align=center;verticalAlign=middle;resizable=0;points=[];" parent="gxma9zbE-h8rMoWy52sN-22" vertex="1" connectable="0">
          <mxGeometry x="0.5917" y="-1" relative="1" as="geometry">
            <mxPoint as="offset" />
          </mxGeometry>
        </mxCell>
        <mxCell id="VCbZnKD6ELxZwYwx5PIa-1" value="Request" style="rhombus;whiteSpace=wrap;html=1;" parent="1" vertex="1">
          <mxGeometry x="1210" y="620" width="80" height="80" as="geometry" />
        </mxCell>
        <mxCell id="VCbZnKD6ELxZwYwx5PIa-2" value="" style="endArrow=none;html=1;rounded=0;exitX=0.5;exitY=0;exitDx=0;exitDy=0;entryX=0.5;entryY=1;entryDx=0;entryDy=0;" parent="1" source="VCbZnKD6ELxZwYwx5PIa-1" target="h7LFF1Y1oiOLzDEk9-o_-63" edge="1">
          <mxGeometry width="50" height="50" relative="1" as="geometry">
            <mxPoint x="1620" y="610" as="sourcePoint" />
            <mxPoint x="1670" y="560" as="targetPoint" />
          </mxGeometry>
        </mxCell>
        <mxCell id="VCbZnKD6ELxZwYwx5PIa-4" value="1" style="edgeLabel;html=1;align=center;verticalAlign=middle;resizable=0;points=[];" parent="VCbZnKD6ELxZwYwx5PIa-2" vertex="1" connectable="0">
          <mxGeometry x="0.8314" y="1" relative="1" as="geometry">
            <mxPoint as="offset" />
          </mxGeometry>
        </mxCell>
        <mxCell id="VCbZnKD6ELxZwYwx5PIa-3" value="" style="endArrow=none;html=1;rounded=0;exitX=1;exitY=0;exitDx=0;exitDy=0;entryX=0.5;entryY=1;entryDx=0;entryDy=0;" parent="1" source="h7LFF1Y1oiOLzDEk9-o_-89" target="VCbZnKD6ELxZwYwx5PIa-1" edge="1">
          <mxGeometry width="50" height="50" relative="1" as="geometry">
            <mxPoint x="1620" y="810" as="sourcePoint" />
            <mxPoint x="1670" y="760" as="targetPoint" />
          </mxGeometry>
        </mxCell>
        <mxCell id="VCbZnKD6ELxZwYwx5PIa-5" value="M" style="edgeLabel;html=1;align=center;verticalAlign=middle;resizable=0;points=[];" parent="VCbZnKD6ELxZwYwx5PIa-3" vertex="1" connectable="0">
          <mxGeometry x="-0.7681" y="1" relative="1" as="geometry">
            <mxPoint as="offset" />
          </mxGeometry>
        </mxCell>
        <mxCell id="VCbZnKD6ELxZwYwx5PIa-6" value="Request" style="rhombus;whiteSpace=wrap;html=1;" parent="1" vertex="1">
          <mxGeometry x="325" y="647.5" width="80" height="80" as="geometry" />
        </mxCell>
        <mxCell id="VCbZnKD6ELxZwYwx5PIa-7" value="" style="endArrow=none;html=1;rounded=0;exitX=0.5;exitY=0;exitDx=0;exitDy=0;entryX=0;entryY=1;entryDx=0;entryDy=0;" parent="1" source="VCbZnKD6ELxZwYwx5PIa-6" target="h7LFF1Y1oiOLzDEk9-o_-1" edge="1">
          <mxGeometry width="50" height="50" relative="1" as="geometry">
            <mxPoint x="270" y="690" as="sourcePoint" />
            <mxPoint x="320" y="640" as="targetPoint" />
          </mxGeometry>
        </mxCell>
        <mxCell id="VCbZnKD6ELxZwYwx5PIa-10" value="M" style="edgeLabel;html=1;align=center;verticalAlign=middle;resizable=0;points=[];" parent="VCbZnKD6ELxZwYwx5PIa-7" vertex="1" connectable="0">
          <mxGeometry x="0.7641" y="1" relative="1" as="geometry">
            <mxPoint as="offset" />
          </mxGeometry>
        </mxCell>
        <mxCell id="VCbZnKD6ELxZwYwx5PIa-8" value="" style="endArrow=none;html=1;rounded=0;entryX=0.5;entryY=1;entryDx=0;entryDy=0;exitX=0.5;exitY=0;exitDx=0;exitDy=0;" parent="1" source="h7LFF1Y1oiOLzDEk9-o_-48" target="VCbZnKD6ELxZwYwx5PIa-6" edge="1">
          <mxGeometry width="50" height="50" relative="1" as="geometry">
            <mxPoint x="330" y="1080" as="sourcePoint" />
            <mxPoint x="320" y="640" as="targetPoint" />
          </mxGeometry>
        </mxCell>
        <mxCell id="VCbZnKD6ELxZwYwx5PIa-11" value="M" style="edgeLabel;html=1;align=center;verticalAlign=middle;resizable=0;points=[];" parent="VCbZnKD6ELxZwYwx5PIa-8" vertex="1" connectable="0">
          <mxGeometry x="-0.7528" y="-2" relative="1" as="geometry">
            <mxPoint as="offset" />
          </mxGeometry>
        </mxCell>
      </root>
    </mxGraphModel>
  </diagram>
</mxfile>
